<svg xmlns="http://www.w3.org/2000/svg" data-name="Layer 1" viewBox="0 0 512 640" x="0px" y="0px"><title>Donation</title><path d="M256,275.427c73.973,0,134.154-60.181,134.154-134.153S329.973,7.12,256,7.12,121.846,67.3,121.846,141.274,182.027,275.427,256,275.427ZM374.154,141.274a117.451,117.451,0,0,1-10.626,48.947l-6.576-7.589a3.894,3.894,0,0,1-.785-1.448L351.278,164.4a19.885,19.885,0,0,0-27.985-12.228l-9.213,4.606a3.882,3.882,0,0,1-3.6-.068l-30.152-16.526a3.91,3.91,0,0,1-1.932-4.219l7.206-33.726a.761.761,0,0,1,.685-.6l31.492-2.363a16.757,16.757,0,0,0,14.257-23.055l-.626-1.531a16.825,16.825,0,0,0-16.154-10.4l-20.942.806,12.181-8.811a15.918,15.918,0,0,0,4.826-5.635l5.448-10.668A118.2,118.2,0,0,1,374.154,141.274Zm-71.618-108.6-5.423,10.641-12.579,9.1a15.851,15.851,0,0,0,9.9,28.682l21.434-.825a.766.766,0,0,1,.731.471l.626,1.53a.758.758,0,0,1-.645,1.042l-31.493,2.363A16.847,16.847,0,0,0,269.952,98.89l-7.207,33.727a20.012,20.012,0,0,0,9.889,21.593l30.152,16.525a19.887,19.887,0,0,0,18.45.349l9.213-4.606a3.885,3.885,0,0,1,5.467,2.389l4.889,16.79a19.784,19.784,0,0,0,4.037,7.432l10.487,12.1a118.114,118.114,0,0,1-113.741,53.355l1.293-12.131a10.814,10.814,0,0,1,4.111-7.369c7.622-5.906,18.487-14.365,26.968-21.127a16.756,16.756,0,0,0-5.313-29.051l-6.03-1.942a.744.744,0,0,1-.389-.29c-4.529-6.652-19.918-23.442-28.689-32.858a34.212,34.212,0,0,0-8.112-6.416l-20.69-11.786a5.8,5.8,0,0,1-2.809-6.273l4.1-19.127a5.849,5.849,0,0,1,6.154-4.579l8.34.671a21.816,21.816,0,0,0,23.527-23.064l-.034-.562A21.953,21.953,0,0,0,225.64,62.414a5.834,5.834,0,0,1-3.439-1.88L201.014,36.722a118,118,0,0,1,101.522-4.044ZM187.205,45.271l23.043,25.9a21.864,21.864,0,0,0,12.9,7.048,5.855,5.855,0,0,1,4.9,5.392l.034.561a5.816,5.816,0,0,1-6.272,6.15l-8.341-.671a21.884,21.884,0,0,0-23.082,17.175l-4.1,19.127a21.734,21.734,0,0,0,10.534,23.528l20.69,11.786a18.262,18.262,0,0,1,4.323,3.419c13.973,15,24.384,26.864,27.171,30.957a16.821,16.821,0,0,0,8.711,6.516l6.029,1.942a.679.679,0,0,1,.515.587.665.665,0,0,1-.27.723c-8.41,6.705-19.214,15.115-26.8,20.99a26.892,26.892,0,0,0-10.221,18.322l-1.15,10.794a117.2,117.2,0,0,1-18.542-6.607l-2.065-6.479a11.742,11.742,0,0,0-1.7-3.353L175.682,200.9a8.26,8.26,0,0,1-1.389-6.665c5.258-23.566,5.258-24.27,5.258-25.434,0-2.827,0-3.336-26.246-47.731a8.213,8.213,0,0,1-1.04-2.873L148.166,93A118.888,118.888,0,0,1,187.205,45.271Zm-48.557,82.273c.277.563.562,1.123.884,1.666,11.785,19.934,20.767,35.4,23.679,40.745-.527,2.58-1.741,8.275-4.533,20.792a24.264,24.264,0,0,0,4.074,19.574L175.2,227.392a117.838,117.838,0,0,1-37.35-86.118A119.026,119.026,0,0,1,138.648,127.544Z"/><path d="M471.089,134.924a8,8,0,0,0-8.68-6.709,36.047,36.047,0,0,0-32.543,37.636l1.44,58.937a45.258,45.258,0,0,0-36.369,25.553L373.4,295.562a51.84,51.84,0,0,1-14.292,18.049l-4.476,3.589a90.928,90.928,0,0,0-34.118,75.234l-8.8-4.189a8,8,0,0,0-10.663,3.782l-23.616,49.588a8,8,0,0,0,3.782,10.662L390.037,504.1A8,8,0,0,0,400.7,500.32l23.616-49.588a8,8,0,0,0-3.782-10.662l-2.9-1.379-2.932-16.711a23.419,23.419,0,0,1,5.349-16.374l56.352-68.19q.17-.207.326-.424a93.515,93.515,0,0,0,17.48-55.674,8.079,8.079,0,0,0-.1-1.13ZM389.694,486.217l-94.371-44.945L312.06,406.13l94.371,44.945Zm74.2-158.782-56.177,67.98a39.346,39.346,0,0,0-8.946,28.125,7.723,7.723,0,0,0,.1.787l1.039,5.922L337.4,400.476a75.024,75.024,0,0,1,27.243-70.793l4.475-3.589a67.914,67.914,0,0,0,18.728-23.653l21.537-45.22a29.3,29.3,0,0,1,31.27-16.262l-31.483,66.106a8,8,0,1,0,14.445,6.88l35.4-74.333a8,8,0,0,0-3.783-10.662,45.338,45.338,0,0,0-7.891-2.886l-1.483-60.7c0-.07,0-.139-.008-.209a20.071,20.071,0,0,1,10.838-18.875l21.532,135.838A77.427,77.427,0,0,1,463.9,327.435Z"/><path d="M35.593,337.416l56.351,68.19a23.415,23.415,0,0,1,5.35,16.374l-2.932,16.711-2.9,1.379a8,8,0,0,0-3.782,10.662L111.3,500.32a8,8,0,0,0,10.663,3.783L230.78,452.277a8,8,0,0,0,3.782-10.662l-23.616-49.588a8,8,0,0,0-10.663-3.782l-8.8,4.189A90.928,90.928,0,0,0,157.368,317.2l-4.477-3.59A51.836,51.836,0,0,1,138.6,295.562l-21.537-45.221a45.257,45.257,0,0,0-36.369-25.553l1.44-58.937a36.047,36.047,0,0,0-32.543-37.636,8,8,0,0,0-8.68,6.709L17.885,280.188a8.079,8.079,0,0,0-.1,1.13,93.515,93.515,0,0,0,17.48,55.674Q35.423,337.21,35.593,337.416ZM216.677,441.272l-94.371,44.945-16.737-35.142L199.94,406.13ZM55.311,146.279a20.071,20.071,0,0,1,10.838,18.875c0,.07-.006.139-.008.209l-1.483,60.7a45.256,45.256,0,0,0-7.891,2.886,8,8,0,0,0-3.783,10.662l35.4,74.333a8,8,0,1,0,14.445-6.88L71.347,240.959a29.3,29.3,0,0,1,31.271,16.262l21.537,45.22a67.91,67.91,0,0,0,18.727,23.652l4.477,3.59A75.025,75.025,0,0,1,174.6,400.476l-62.513,29.773,1.039-5.922a7.723,7.723,0,0,0,.1-.787,39.35,39.35,0,0,0-8.946-28.126L48.1,327.435a77.427,77.427,0,0,1-14.323-45.318Z"/></svg>